<mxfile host="app.diagrams.net" modified="2023-09-05T16:54:56.608Z" agent="Mozilla/5.0 (Windows NT 10.0; Win64; x64) AppleWebKit/537.36 (KHTML, like Gecko) Chrome/116.0.0.0 Safari/537.36" version="21.7.1" etag="XLApPFngvofBPcn3q_hW" type="github">
  <diagram name="Page-1" id="1zYVnJ6PhORE1R0jCIVj">
    <mxGraphModel>
      <root>
        <mxCell id="0" />
        <mxCell id="1" parent="0" />
      </root>
    </mxGraphModel>
  </diagram>
</mxfile>
